<svg xmlns="http://www.w3.org/2000/svg" viewBox="0 0 210.39 247.6"><defs><style>.cls-1{fill:#08ff04;}.cls-2{fill:#fff;}</style></defs><g id="Layer_2" data-name="Layer 2"><g id="Layer_1-2" data-name="Layer 1"><path class="cls-1" d="M38.77,77.65H172.41v110s-2,9.79-9.79,9.79h-14.9v35.3s-.61,14.89-14.89,14.89-14.9-14.89-14.9-14.89V198.43H93.45v35.3s.2,13.46-15.31,13.26c0,0-14.27-.2-14.27-14.28V197.82H49.38s-10.61.61-10.61-10.61Z"/><path class="cls-1" d="M181.28,92.13s0-14.48,14.49-14.48,14.59,12.44,14.59,14.59v63.14S211.79,169,196.74,169s-15.46-9.94-15.46-14.23Z"/><path class="cls-1" d="M0,92.13S0,77.65,14.49,77.65,29.07,90.09,29.07,92.24v63.14S30.5,169,15.45,169,0,159.06,0,154.77Z"/><path class="cls-1" d="M137.93,21,149.48,3.88c2-2.76-.49-3.42-.49-3.42-1.63-1.3-2.93,1-2.93,1l-12,17.83a76.37,76.37,0,0,0-56.38-.16C74.09,13.91,64.77.53,64.11.14c-.81-.49-2,.49-2,.49C60.05,2.26,61,3.07,61,3.07l12.19,18c-18.67,9.05-32,25.84-34.6,46.38H172.36C169.87,46.84,156.66,30,137.93,21Z"/><path class="cls-2" d="M141.82,42.05a7.45,7.45,0,1,1-7.45-7.45A7.46,7.46,0,0,1,141.82,42.05Z"/><path class="cls-2" d="M84.57,42.05a7.45,7.45,0,1,1-7.45-7.45A7.46,7.46,0,0,1,84.57,42.05Z"/></g></g></svg>