<svg xmlns="http://www.w3.org/2000/svg" viewBox="-26 -20 507 552" fill="#fff">
	<linearGradient id="d" x1="121.0946" x2="261.7725" y1="55.8074" y2="235.867" gradientUnits="userSpaceOnUse">
		<stop offset="0" stop-color="#a47ede"/>
		<stop offset="1" stop-color="#9866d3"/>
	</linearGradient>
	<linearGradient id="b" x1="314.1754" x2="443.4638" y1="207.291" y2="372.7726" gradientUnits="userSpaceOnUse">
		<stop offset="0" stop-color="#3b009b"/>
		<stop offset="1" stop-color="#390086"/>
	</linearGradient>
	<linearGradient id="c" x1="115.2882" x2="252.7405" y1="326.1631" y2="502.094" gradientUnits="userSpaceOnUse">
		<stop offset="0" stop-color="#340084"/>
		<stop offset="1" stop-color="#290064"/>
	</linearGradient>
	<clipPath id="a">
		<path d="M435.279 113.284L247.191 4.692c-10.835-6.257-28.567-6.257-39.402 0L19.701 113.284C8.865 119.539 0 134.896 0 147.408v217.185c.843 14.571 8.286 26.639 19.701 34.123l188.088 108.592c10.835 6.257 28.567 6.257 39.402 0l188.088-108.592c12.248-8.146 19.219-20.408 19.701-34.123V147.408c-.44-13.165-8.323-26.443-19.701-34.124z"/>
	</clipPath>
	<g clip-path="url(#a)">
		<path fill="url(#b)" d="M222.588 124.487h267.464V397.98H222.588z"/>
		<path fill="url(#c)" d="M490.052 407.802L145.845 208.63H-29.911v329.723h519.963z"/>
		<path fill="url(#d)" d="M-29.911 405.093l519.963-300.885V-14.513H-29.911z"/>
	</g>
	<path d="M75.83 256.001c-.891-148.089 197.459-213.479 282.996-75.878l-65.635 37.98C253.569 152.569 155.19 176.002 151.659 256c1.06 73.729 97.754 107.978 141.536 37.893l65.635 37.979c-75.382 130.863-279.198 83.781-283-75.871zM326 213h12.5l-8.541 82.5h-12.735zM352.776 213h12.5l-8.541 82.5H344zM312 232.592h62.5v12.072H312zM308.5 262H371v12.072h-62.5z"/>
</svg>