<svg xmlns="http://www.w3.org/2000/svg" xmlns:xlink="http://www.w3.org/1999/xlink" viewBox="0 0 98.14 98.14"><defs><style>.cls-1{fill:#08ff04;}.cls-2{clip-path:url(#clip-path);}.cls-3{fill:#fff;}</style><clipPath id="clip-path"><path class="cls-1" d="M98.14,49.07A49.07,49.07,0,1,0,49.07,98.14,49.07,49.07,0,0,0,98.14,49.07Z"/></clipPath></defs><g id="Layer_2" data-name="Layer 2"><g id="Layer_1-2" data-name="Layer 1"><path class="cls-1" d="M98.14,49.07A49.07,49.07,0,1,0,49.07,98.14,49.07,49.07,0,0,0,98.14,49.07Z"/><g class="cls-2"><path class="cls-3" d="M59.36,45.88h-2.8a16.18,16.18,0,0,1-14.87,0h-2.8A12.48,12.48,0,0,0,26.42,58.34V74.5H71.83V58.34A12.48,12.48,0,0,0,59.36,45.88Z"/><path class="cls-3" d="M62.23,31.49a13.11,13.11,0,1,0-13.11,13.1A13.12,13.12,0,0,0,62.23,31.49Z"/><path class="cls-3" d="M59.36,45.88h-2.8a16.18,16.18,0,0,1-14.87,0h-2.8A12.48,12.48,0,0,0,26.42,58.34V74.5H71.83V58.34A12.48,12.48,0,0,0,59.36,45.88Z"/><path class="cls-3" d="M62.23,31.49a13.11,13.11,0,1,0-13.11,13.1A13.12,13.12,0,0,0,62.23,31.49Z"/></g></g></g></svg>